HIERARCHY
ROOT Hips
{
	OFFSET -14.64140 90.27770 -84.91600
	CHANNELS 6 Xposition Yposition Zposition Zrotation Xrotation Yrotation
	JOINT Spine
	{
		OFFSET 0.00000 13.20850 -1.60436
		CHANNELS 3 Zrotation Xrotation Yrotation
		JOINT Spine1
		{
			OFFSET 0.00000 8.61716 0.00000
			CHANNELS 3 Zrotation Xrotation Yrotation
			JOINT Spine2
			{
				OFFSET 0.00000 8.61717 0.00000
				CHANNELS 3 Zrotation Xrotation Yrotation
				JOINT Spine3
				{
					OFFSET 0.00000 8.61717 0.00000
					CHANNELS 3 Zrotation Xrotation Yrotation
					JOINT Neck
					{
						OFFSET 0.00000 11.07920 1.10792
						CHANNELS 3 Zrotation Xrotation Yrotation
						JOINT Neck1
						{
							OFFSET 0.00000 7.08032 0.00000
							CHANNELS 3 Zrotation Xrotation Yrotation
							JOINT Head
							{
								OFFSET 0.00000 7.08031 0.00000
								CHANNELS 3 Zrotation Xrotation Yrotation
								End site
								{
									OFFSET 0.00000 0.00000 0.00000
								}
							}
						}
					}
					JOINT RightShoulder
					{
						OFFSET -0.01000 7.91373 5.19711
						CHANNELS 3 Zrotation Xrotation Yrotation
						JOINT RightArm
						{
							OFFSET -18.41580 0.00000 0.00000
							CHANNELS 3 Zrotation Xrotation Yrotation
							JOINT RightForeArm
							{
								OFFSET -29.11090 0.00000 0.00000
								CHANNELS 3 Zrotation Xrotation Yrotation
								JOINT RightHand
								{
									OFFSET -24.65040 0.00000 0.00000
									CHANNELS 3 Zrotation Xrotation Yrotation
									JOINT RightHandThumb1
									{
										OFFSET -5.35114 -0.85590 3.97906
										CHANNELS 3 Zrotation Xrotation Yrotation
										JOINT RightHandThumb2
										{
											OFFSET -4.52789 0.00000 0.00000
											CHANNELS 3 Zrotation Xrotation Yrotation
											JOINT RightHandThumb3
											{
												OFFSET -2.46976 0.00000 0.00000
												CHANNELS 3 Zrotation Xrotation Yrotation
												End site
												{
													OFFSET 0.00000 0.00000 0.00000
												}
											}
										}
									}
									JOINT RightHandIndex1
									{
										OFFSET -14.26970 0.00000 2.88139
										CHANNELS 3 Zrotation Xrotation Yrotation
										JOINT RightHandIndex2
										{
											OFFSET -5.48836 0.00000 0.00000
											CHANNELS 3 Zrotation Xrotation Yrotation
											JOINT RightHandIndex3
											{
												OFFSET -3.01859 0.00000 0.00000
												CHANNELS 3 Zrotation Xrotation Yrotation
												End site
												{
													OFFSET 0.00000 0.00000 0.00000
												}
											}
										}
									}
									JOINT RightHandMiddle1
									{
										OFFSET -14.26970 0.00000 -0.09147
										CHANNELS 3 Zrotation Xrotation Yrotation
										JOINT RightHandMiddle2
										{
											OFFSET -6.17441 0.00000 0.00000
											CHANNELS 3 Zrotation Xrotation Yrotation
											JOINT RightHandMiddle3
											{
												OFFSET -3.56743 0.00000 0.00000
												CHANNELS 3 Zrotation Xrotation Yrotation
												End site
												{
													OFFSET 0.00000 0.00000 0.00000
												}
											}
										}
									}
									JOINT RightHandRing1
									{
										OFFSET -12.69180 0.00000 -3.06433
										CHANNELS 3 Zrotation Xrotation Yrotation
										JOINT RightHandRing2
										{
											OFFSET -5.62556 0.00000 0.00000
											CHANNELS 3 Zrotation Xrotation Yrotation
											JOINT RightHandRing3
											{
												OFFSET -3.56744 0.00000 0.00000
												CHANNELS 3 Zrotation Xrotation Yrotation
												End site
												{
													OFFSET 0.00000 0.00000 0.00000
												}
											}
										}
									}
									JOINT RightHandPinky1
									{
										OFFSET -11.11390 0.00000 -6.03719
										CHANNELS 3 Zrotation Xrotation Yrotation
										JOINT RightHandPinky2
										{
											OFFSET -4.52789 0.00000 0.00000
											CHANNELS 3 Zrotation Xrotation Yrotation
											JOINT RightHandPinky3
											{
												OFFSET -2.46976 0.00000 0.00000
												CHANNELS 3 Zrotation Xrotation Yrotation
												End site
												{
													OFFSET 0.00000 0.00000 0.00000
												}
											}
										}
									}
								}
							}
						}
					}
					JOINT LeftShoulder
					{
						OFFSET 0.01000 7.91373 5.19711
						CHANNELS 3 Zrotation Xrotation Yrotation
						JOINT LeftArm
						{
							OFFSET 18.41580 0.00000 0.00000
							CHANNELS 3 Zrotation Xrotation Yrotation
							JOINT LeftForeArm
							{
								OFFSET 29.11090 0.00000 0.00000
								CHANNELS 3 Zrotation Xrotation Yrotation
								JOINT LeftHand
								{
									OFFSET 24.65040 0.00000 0.00000
									CHANNELS 3 Zrotation Xrotation Yrotation
									JOINT LeftHandThumb1
									{
										OFFSET 5.35114 -0.85590 3.97906
										CHANNELS 3 Zrotation Xrotation Yrotation
										JOINT LeftHandThumb2
										{
											OFFSET 4.52789 0.00000 0.00000
											CHANNELS 3 Zrotation Xrotation Yrotation
											JOINT LeftHandThumb3
											{
												OFFSET 2.46977 0.00000 0.00000
												CHANNELS 3 Zrotation Xrotation Yrotation
												End site
												{
													OFFSET 0.00000 0.00000 0.00000
												}
											}
										}
									}
									JOINT LeftHandIndex1
									{
										OFFSET 14.26970 0.00000 2.88139
										CHANNELS 3 Zrotation Xrotation Yrotation
										JOINT LeftHandIndex2
										{
											OFFSET 5.48836 0.00000 0.00000
											CHANNELS 3 Zrotation Xrotation Yrotation
											JOINT LeftHandIndex3
											{
												OFFSET 3.01859 0.00000 0.00000
												CHANNELS 3 Zrotation Xrotation Yrotation
												End site
												{
													OFFSET 0.00000 0.00000 0.00000
												}
											}
										}
									}
									JOINT LeftHandMiddle1
									{
										OFFSET 14.26970 0.00000 -0.09147
										CHANNELS 3 Zrotation Xrotation Yrotation
										JOINT LeftHandMiddle2
										{
											OFFSET 6.17440 0.00000 0.00000
											CHANNELS 3 Zrotation Xrotation Yrotation
											JOINT LeftHandMiddle3
											{
												OFFSET 3.56744 0.00000 0.00000
												CHANNELS 3 Zrotation Xrotation Yrotation
												End site
												{
													OFFSET 0.00000 0.00000 0.00000
												}
											}
										}
									}
									JOINT LeftHandRing1
									{
										OFFSET 12.69180 0.00000 -3.06433
										CHANNELS 3 Zrotation Xrotation Yrotation
										JOINT LeftHandRing2
										{
											OFFSET 5.62556 0.00000 0.00000
											CHANNELS 3 Zrotation Xrotation Yrotation
											JOINT LeftHandRing3
											{
												OFFSET 3.56744 0.00000 0.00000
												CHANNELS 3 Zrotation Xrotation Yrotation
												End site
												{
													OFFSET 0.00000 0.00000 0.00000
												}
											}
										}
									}
									JOINT LeftHandPinky1
									{
										OFFSET 11.11390 0.00000 -6.03719
										CHANNELS 3 Zrotation Xrotation Yrotation
										JOINT LeftHandPinky2
										{
											OFFSET 4.52789 0.00000 0.00000
											CHANNELS 3 Zrotation Xrotation Yrotation
											JOINT LeftHandPinky3
											{
												OFFSET 2.46976 0.00000 0.00000
												CHANNELS 3 Zrotation Xrotation Yrotation
												End site
												{
													OFFSET 0.00000 0.00000 0.00000
												}
											}
										}
									}
								}
							}
						}
					}
					JOINT pCube4
					{
						OFFSET 0.00000 10.91090 1.10792
						CHANNELS 3 Zrotation Xrotation Yrotation
						End site
						{
							OFFSET 0.00000 0.00000 0.00000
						}
					}
				}
			}
		}
	}
	JOINT RightUpLeg
	{
		OFFSET -9.98441 0.00000 0.00000
		CHANNELS 3 Zrotation Xrotation Yrotation
		JOINT RightLeg
		{
			OFFSET 0.00000 -42.11790 0.00000
			CHANNELS 3 Zrotation Xrotation Yrotation
			JOINT RightFoot
			{
				OFFSET 0.00000 -45.00020 -0.00001
				CHANNELS 3 Zrotation Xrotation Yrotation
				JOINT RightForeFoot
				{
					OFFSET 0.00000 -3.74820 0.00000
					CHANNELS 3 Zrotation Xrotation Yrotation
					JOINT RightToeBase
					{
						OFFSET 0.00000 0.06325 14.43120
						CHANNELS 3 Zrotation Xrotation Yrotation
						End site
						{
							OFFSET 0.00000 0.00000 0.00000
						}
					}
				}
			}
		}
	}
	JOINT LeftUpLeg
	{
		OFFSET 9.98441 0.00000 0.00000
		CHANNELS 3 Zrotation Xrotation Yrotation
		JOINT LeftLeg
		{
			OFFSET 0.00000 -42.11800 0.00000
			CHANNELS 3 Zrotation Xrotation Yrotation
			JOINT LeftFoot
			{
				OFFSET 0.00000 -45.00070 0.00000
				CHANNELS 3 Zrotation Xrotation Yrotation
				JOINT LeftForeFoot
				{
					OFFSET 0.00000 -3.74824 0.00000
					CHANNELS 3 Zrotation Xrotation Yrotation
					JOINT LeftToeBase
					{
						OFFSET 0.00000 0.06325 14.43110
						CHANNELS 3 Zrotation Xrotation Yrotation
						End site
						{
							OFFSET 0.00000 0.00000 0.00000
						}
					}
				}
			}
		}
	}
}
MOTION
Frames: 4
Frame Time: 0.050000
0.014448355410772926 -0.0255909030829519 -0.04197277445962489 -0.04425199615117072 -0.01927162065805879 -0.03363054318885058 0.37700688732431314 1.4314297692165934 -1.3710738577225658 -0.5199412723582996 3.778561472731752 0.2840787440998805 -0.6580111531383337 -1.6624948738569625 0.7590501129481282 -0.9017635855467002 -0.46375824663064524 -0.4255267056105575 -0.3745498690390291 12.854747765743832 0.1877964837246523 0.655387435570009 -0.5737330638041183 -0.02749410421505923 0.7637085350444687 -16.222594805608395 -0.09505644910813013 -2.756560757174966 1.4515213470804302 -15.250231044280913 72.37618070935345 14.682113160502814 5.171239689179171 13.258316184193458 5.621836133410531 89.50362564588684 23.694563986021805 -0.305646486802248 -5.0170819134226585 4.519997298511129 -0.1642385015893421 -1.544554564849366 -0.04841876876088981 0.008676782565067983 -56.22489896590623 -0.005850394917804043 -0.03957994287534193 -56.22356108361471 -38.78799158935064 -0.0062818021865499755 0.018877244444765982 0.029069762397136305 -0.048128606496876565 -0.048465177003700004 -0.01171365179502872 -0.012786143187820979 0.0387609191015406 -36.73886335557665 0.026241301094222205 -0.02118431113378118 0.04221245443094441 -0.04888068042236989 -0.04111782363497218 0.03164998759870502 -0.013915601199310056 0.028159454560076496 -19.75655159525192 0.017907047563341726 -0.02913012907397552 0.00847051652005739 0.007926464345033243 -0.003656547734164859 -0.03573245750573514 -0.00861349935942061 0.01883658425810108 24.043074292236938 -0.034312326664841596 -0.010724648822654795 28.89309184890129 0.03125468223279268 -0.010276874062880728 28.88421006554185 0.046583074269681835 -0.04824482274633076 5.534730828905911 1.583653327893257 14.199597171863923 -76.91282982720489 26.52574047739472 -8.473624727529453 -58.90306352287739 15.498053818727634 -103.43501145223576 -21.31144154465262 0.5601277791769045 0.9957096951419122 -0.4655010714193523 0.0618915370517664 -8.091421088228133 -0.016103737759389128 0.034452147077161425 44.603138089130354 -0.010344408383017499 0.007460067358032613 44.58776261342249 12.467628219680293 0.037123159987243144 0.04534586240129143 0.021854065311834023 -0.004733313459229639 0.012675920423955416 0.029792695634376178 0.028031579150011407 0.021780052467757695 11.133487818971599 -0.0071734586313162855 0.03564889416802729 0.02056070499541749 0.0469531816692564 0.00401622071462489 0.004396283239541412 -0.02230108990951641 0.008698629917004794 4.768151268067091 0.007538015600588602 -0.038295490586033334 0.002076485955146557 -0.029759278076903775 -0.0420849809816918 -0.040406430742182996 0.0004501559253161001 0.007085725827447581 -5.597659492301159 0.012451440650445133 0.029347261482296324 -6.719212363831556 -0.0165483763060656 0.010524279149332351 -6.7631023381906035 -0.007552601900103821 -0.02064347885598527 -0.041354753575110655 0.024610013091595922 0.0348969278413242 8.019818025372492 3.455920472922353 -19.228123267525557 -0.04945345273056769 10.40383042395114 0.055755147570856256 -5.610981483425092 -15.62969805701887 3.1483760620035093 0.025532703008120917 0.01628276451161248 0.017535388292184234 0.02780105929137929 4.715153388371799 0.017167021296302806 12.47663840488101 -8.190398166626323 6.8789758005914425 0.012103122913676894 46.36219316196454 0.026124017886655554 -4.290200346551055 -14.77553368407291 -3.8334847499546245 0.024095704689357417 0.0019347068021121248 0.030828008501668513 -0.022125804424547202 -10.70185083089901 0.009280735601944081 
0.0012958147824340706 0.029475314730633036 -0.04125375607204596 0.017009358956391506 -0.02808803107041198 -0.03747014340520039 -0.03522562545029207 1.3861293949373685 -1.3470592499729988 -0.4492607038039622 3.8176142860846602 0.30120005648039005 -0.6970423574480644 -1.6824530297761056 0.6830715783737672 -0.8752823712923063 -0.5187135088631921 -0.4012635447122363 -0.3726602489434485 13.026385160409031 0.28173393941791347 0.6587787716783142 -0.58330365445676 0.10786906157136886 0.7131113705429746 -16.125048814636635 -0.03976553056512195 -2.2463490533627666 1.2743035860022436 -15.207782317761595 71.98661882319493 14.944894860779145 5.113319308084281 12.526290198652854 6.1083235603565065 87.60812441972273 24.050267265668367 -0.30375530325152444 -4.642991506397355 4.549543782491109 -0.11858789546672292 -1.6312831583898117 0.03279612837111273 -0.025188012274026384 -56.2607458419426 -0.005671053447994679 -0.04000301925532469 -56.27580839198022 -38.73769653382351 -0.03043377491751707 -0.003874394185041529 0.002640999574646449 0.02913393615452311 -0.039692583595050006 -0.010062186895487386 -0.023552398908680206 -0.03235084415653553 -36.71461180658909 -0.006092513930202957 0.01032528930286909 -0.03854648787300172 0.016235391192234747 -0.031223462848142362 -0.012041463994596097 -0.036613887584339366 -0.004285786075909897 -19.73286133763043 0.01325144320283761 0.0296371095735794 0.03134266532119662 -0.03453251120586199 -0.015790442681323947 0.026806083846891742 -0.039307042480370855 -0.047903670505468475 24.06200421149388 -0.035279442324290394 -0.03668989600453478 28.845079265872894 -0.027271126232377655 0.0072529279739120414 28.91069918043014 -0.02755807775460947 -0.01753008324472045 5.230981532550991 1.4706629946508722 14.12888055023625 -76.91629165000124 26.916389418453296 -8.825517181450941 -55.59900270553598 14.553478308692528 -102.62451305023703 -21.19758668755059 0.8800805801361896 0.7772853640833554 -0.44262952686839396 0.09904171043004265 -8.115832893866521 0.035284992303589155 -0.01713333258415898 44.59735909460397 -0.0022291611540564893 -0.044990815993633346 44.617130021343854 12.428616961520524 0.020758423163479388 -0.03902920028055691 -0.01031756074241795 -0.017484180810647214 0.023889707567134617 0.017069321363560347 -0.017503218450339003 0.0315918566806728 11.137586574191223 0.002088893814305057 0.03576251132404774 0.013153094764373967 0.019022669099194173 0.040489437157316156 -0.01262626073752226 -0.022318482384953972 -0.026623587736527777 4.754287263303094 0.007616794780717695 -0.013237287504047918 -0.02399560921632535 0.023611733828560258 0.03746100279198989 0.012115980986183432 0.04463239971355324 0.03070405759463231 -5.609236339104141 -0.0034154096621497342 -0.005702903019491395 -6.7114442268130565 0.045470776118143645 0.04865134099488822 -6.750429027191569 -0.008668988213221575 -0.04532143802746796 0.015836616907681133 0.024524586319612643 0.00300675917510561 8.017335788593131 3.4618653242527824 -19.225520690033335 -0.017189598652192738 10.416291454146707 0.018646706112639577 -5.585960761019066 -15.662051626114906 3.2047738643274704 0.04902899366555488 -0.026219348479875556 0.04424865240128963 0.01656631420612784 4.664719632421745 -0.014615510813399114 12.476502743572484 -8.22992774958289 6.921646674728086 0.026528653054646002 46.347230044171006 -0.03266317016769531 -4.277592817672754 -14.704182568747218 -3.8552571135395515 0.029659206539200806 -0.03860923268024059 -0.010829482819843174 0.007019283528884194 -10.715909109514227 0.013470458845009806 
0.0454059926966885 -0.026361162216393938 -0.010600064924696333 0.01665658258754095 -0.035223396321570836 0.022947952863243342 -0.4422611129253172 1.376949791853062 -1.2615913998197936 -0.4994323855352914 3.8967293692471885 0.3050841550169143 -0.7767416476942645 -1.6724535338052344 0.6439224951120365 -0.8577007427429293 -0.525569133979383 -0.45907929633093003 -0.3650502810287061 13.258776221094958 0.32303778087700225 0.7038137690867581 -0.6475621754699232 0.2363212772265949 0.7671191928840977 -16.149685208470153 -0.0297863097167616 -1.8390932567506697 1.0951034351737585 -15.159486139855817 71.40264825701496 14.236586756656308 5.235910697451576 12.32019837758938 7.061797577142832 85.01941353127567 24.63853322305894 -0.25638479321207985 -4.297229789110652 4.540150150413484 -0.07748427017724968 -1.5909535736378615 -0.009978668210500856 -0.002163667068191371 -56.259786674366524 0.003122784955642658 -0.020394918261383205 -56.235818992088106 -38.73070854157196 0.04329690908275156 0.01593608026279014 0.014383554105969138 -0.02277295562045766 -0.014998225632675504 0.03091195990186875 0.04838546020334668 -0.015940410066384688 -36.66686201985412 -0.014718999019887512 0.04680720813698864 -0.014885305320664208 -0.0046886265245788886 -0.021858977436530584 -0.0271249018991398 -0.006481716853460385 -0.03943028300490309 -19.7724418073155 -0.02153219226001093 -0.003271870057433291 -0.007222184304435142 0.04916311058810162 0.006958164548272316 0.021026381385681664 0.02308715060917099 0.021866569961668893 24.100895374535796 0.010335635379947476 -0.001509392819528595 28.88823827555522 0.030926182182937162 0.03178712596472757 28.898182307042457 0.023798328723949137 0.013823398739737819 4.911071298215666 1.4371381979690834 14.18646519257495 -76.76593041652315 26.985190891957856 -9.187062294922912 -51.716799330004605 13.63199480435891 -101.76240410517276 -21.14802519587928 1.6514294516153472 0.26461682020734184 -0.4739836383157683 0.0877353790512168 -8.113303861618498 0.012697355485707907 0.00315761922880973 44.55870555210139 -0.00011964781832349245 -0.0212180366307561 44.53664381723694 12.467420343260978 0.005412949818906671 0.04504244996293178 -0.0015613526191411418 -0.011936120392790303 -0.04172262750634504 0.022086363444776914 -0.01656685399146785 0.017116106965797167 11.137018844519577 0.02696490804874117 -0.029322857374774018 0.0037639555261261884 0.02456483449982443 -0.002137731992532119 -0.009919660801079824 0.006185983983719999 -0.014613130255534236 4.816547112449724 -0.037042796385619074 0.032735248054834444 0.01984265633956128 0.007410890717300614 0.03366016780731177 0.0069998520362054865 0.028422860522633025 -0.008268119676683849 -5.598165144515933 0.005186695930723584 -0.014003317472206333 -6.725487345530648 -0.032679246911844435 0.015426851368533395 -6.706373665868651 0.004268586593919862 -0.00859100002262743 0.013199851241902538 0.0013205650188406841 -0.039822603458221965 8.021881055691736 3.469419824132603 -19.266854743881055 0.023691548523605402 10.385262606945089 0.05904515045877619 -5.656844440607609 -15.640500013912694 3.208457879378054 0.029325079641991204 -0.019653867803143966 0.041325707785787334 0.04744852291566578 4.692153461383426 0.022924203072449113 12.442535911173199 -8.195131789410352 6.844193113251767 -0.04331933507838983 46.42652615007636 0.010348984551939536 -4.303289112790921 -14.723020029264706 -3.8321374243627706 0.03360581233709021 0.0015571584169590238 -0.0015083532212847872 0.011371406791973774 -10.775514642751741 0.03946873912381331 
-0.031681553984611054 0.023919080171134092 0.005699106395017542 0.04043700199100679 0.040100337835640223 -0.021948936696016923 -0.6336241060473006 1.429184083287509 -1.2095650270999998 -0.4419078292076972 3.929042179105351 0.3385089362098171 -0.7546963780768258 -1.7732742899725997 0.5219551504007554 -0.8437007931425529 -0.5335537766710472 -0.46796917298622687 -0.44792995539535185 13.383048383354346 0.3674114371111571 0.6408941026702358 -0.7417308012855124 0.3251056521650751 0.7634610130857664 -16.350740065547654 -0.05689973486304042 -1.7662339076593683 1.0149236473445538 -15.206468552953137 71.33596903396193 12.468274653429274 5.5510725422972005 12.191053887366198 8.391174697339393 82.42330164887458 25.031291703590224 -0.3167531655221721 -3.5472670171451073 4.523111636922807 -0.1433706067811282 -1.5928900410389766 -0.029970172091618088 0.03745206244348858 -56.25835234806609 -4.616910153870716e-05 -0.04554440528672537 -56.256182284376 -38.73370018591909 0.04073326973386579 -0.03512112554610006 -0.030784628544925946 -0.03294745472073908 0.010676136634235422 -0.005377682405846424 -0.03465498208650046 -0.043250731740853955 -36.6459518462279 0.029623605148709223 -0.0034476851709679857 -0.0177482413606547 0.02478485796581764 0.014366205645179268 -0.016940674161185096 -0.011143245223267225 -0.03020568074096792 -19.738900192976004 0.042374871564971606 0.019463096701426704 -0.02897285000082306 -0.014031752691879028 -0.02668459963480336 -0.046677699023018514 -0.049077037305885855 -0.02097478530331152 24.050509884203038 -0.04163531863746796 0.007023553268003727 28.870459469857707 0.04211615696050064 0.013862203162540764 28.85857787724199 0.009428632801772719 0.006047459076456441 4.939631108210513 1.406834617473138 14.21804319615309 -76.59596254362235 26.83290491348185 -9.90585293459022 -47.47183067688044 12.586248059732645 -100.91574055753142 -21.143319545832505 2.314474160988614 -0.24725310733860495 -0.49173413177832476 0.06375256234209013 -8.135656883239028 0.03764132230556484 0.035227945563006506 44.55676004064861 -0.040219192932490606 -0.0056453177168902 44.558372426813065 12.464006587923294 -0.010412776728909981 -0.003511410049879045 -0.001073616917431512 0.04695577913343755 0.04634454473552145 0.02727375450258641 -0.0026253737551975532 0.018256871824114406 11.090378021840444 -0.03194867406158223 -0.04816017889910399 0.006882739570014146 -0.0036346215758640316 0.03332924843538999 0.04456898811066387 -0.02077968716927448 0.01791672380406595 4.788742006246068 -0.017902656537626183 0.006884535835504962 -0.03567817126591358 -0.023892254439020207 0.015321000290852612 0.00015138038055814685 0.025861349282652244 0.01853005801625526 -5.576408434804157 -0.043731244324627876 0.01330183092907924 -6.735250027039213 0.03676981300334944 0.009748947714836925 -6.721526364090414 0.018361083849793812 0.03659549471444413 -0.017763509705887397 0.0007305038489979867 0.04577660482354108 8.050178792753492 3.5224588356833206 -19.214001751223762 -0.005437893779004342 10.413710904233277 0.0006012216867289557 -5.578185512104251 -15.679220691678601 3.178865110444886 0.014046335785163797 0.04954625807507783 -0.0036929049007723433 0.04069628463287404 4.655263596349012 -0.01011086903717121 12.471430445094986 -8.242037208452624 6.869418312779875 0.020886587323504582 46.356734752256294 0.029016899138125784 -4.328463460783002 -14.750404496618719 -3.8772150011395152 -0.020071168240651745 -0.01028716643634876 0.030972115972850756 0.007464871082990204 -10.718323799751152 -0.020024770309197415 
